<?xml version="1.0" standalone="no"?>
<!DOCTYPE svg PUBLIC "-//W3C//DTD SVG 20010904//EN"
 "http://www.w3.org/TR/2001/REC-SVG-20010904/DTD/svg10.dtd">
<svg version="1.0" xmlns="http://www.w3.org/2000/svg"
 width="1025.000000pt" height="179.000000pt" viewBox="0 0 1025.000000 179.000000"
 preserveAspectRatio="xMidYMid meet">

<g transform="translate(0.000000,179.000000) scale(0.100000,-0.100000)"
fill="#000000" stroke="none">
<path d="M801 1779 c-202 -24 -374 -104 -520 -243 -365 -349 -367 -928 -3
-1278 82 -79 165 -136 257 -176 440 -192 951 -10 1164 415 l31 62 -58 34 c-31
18 -162 93 -289 167 -128 73 -232 135 -230 136 1 1 101 59 222 129 121 70 250
145 287 167 l68 39 -34 68 c-164 324 -534 523 -895 480z"/>
<path d="M2848 1779 c-194 -21 -364 -99 -507 -235 -168 -158 -257 -337 -280
-563 -43 -409 214 -805 604 -930 544 -175 1101 183 1164 749 20 178 -23 387
-108 533 -51 86 -67 107 -149 190 -186 190 -455 285 -724 256z"/>
<path d="M4175 1778 c-3 -7 -4 -409 -3 -893 l3 -880 380 0 c432 0 462 3 600
70 151 72 254 176 324 326 61 132 66 167 66 494 0 332 -5 365 -70 500 -72 150
-171 248 -320 320 -49 24 -112 49 -140 55 -77 19 -833 26 -840 8z"/>
<path d="M5875 1778 c-3 -7 -4 -409 -3 -893 l3 -880 300 0 300 0 0 890 0 890
-298 3 c-233 2 -299 0 -302 -10z"/>
<path d="M6795 1778 c-3 -7 -4 -409 -3 -893 l3 -880 300 0 300 0 3 142 3 143
382 2 382 3 0 300 0 300 -382 3 -383 2 0 140 0 140 383 2 382 3 0 300 0 300
-683 3 c-541 2 -684 0 -687 -10z"/>
<path d="M8520 1779 c0 -7 124 -225 275 -485 l275 -473 2 -408 3 -408 300 0
300 0 5 405 5 405 274 470 c151 258 276 477 279 487 4 17 -33 18 -857 18 -642
0 -861 -3 -861 -11z"/>
</g>
</svg>
